<svg xmlns="http://www.w3.org/2000/svg"  viewBox="0 0 80 80" width="16px" height="16px"><path fill="#8bb7f0" d="M61.857,18.021l-4.398,12.893l-3.602-10.893C56.984,19.485,58.73,19.518,61.857,18.021z"/><path fill="#8bb7f0" d="M14.857,19.021l5.5,9.979l2.5-7.979C18.857,20.021,17.463,19.504,14.857,19.021z"/><line x1="20.357" x2="14.809" y1="28.521" y2="18.767" fill="none" stroke="#4e7ab5" stroke-miterlimit="10"/><polygon fill="#8bb7f0" points="33.029,38.5 38.425,20.516 45.619,38.5"/><path fill="#4e7ab5" d="M38.492,22.031l6.388,15.97H33.701L38.492,22.031 M38.357,19.001l-6,20h14L38.357,19.001 L38.357,19.001z"/><line x1="57.357" x2="61.884" y1="29.521" y2="18.78" fill="none" stroke="#4e7ab5" stroke-miterlimit="10"/><path fill="#4e7ab5" d="M19.103,4.14c0.622,0.105,1.235,0.21,1.839,0.313C26.764,5.45,31.792,6.31,38.221,6.31 c5.693,0,11.877-0.682,19.395-2.144c0.613,2.472,2.324,9.364,3.532,14.135c-3.051,0.834-6.966,1.714-7.01,1.723l-1.146,0.257 l0.436,1.09L65.31,51.085l-0.332,1.316H13.894l-0.475-1.403l9.887-29.681l0.36-1.081l-1.118-0.217 c-0.047-0.009-4.294-0.837-6.996-1.674l3.316-13.262L19.103,4.14 M58.357,3.001C49.904,4.691,43.595,5.31,38.221,5.31 c-7.34,0-12.936-1.155-19.864-2.309l-0.46,1.84l-3.54,14.16c2.64,0.96,8,2,8,2l-9.98,29.96l-0.02,0.02l0.82,2.42h52.58l0.6-2.38 l-0.02-0.06l-11.98-29.96c0,0,4.82-1.08,8-2C60.869,13.153,58.357,3.001,58.357,3.001L58.357,3.001z"/><g><polygon fill="#8bb7f0" points="36.666,74.5 34.357,69.882 32.049,74.5 20.718,74.5 13.652,53.243 13.049,51.462 28.718,51.501 32.357,40.582 35.997,51.501 65.73,51.461 59.967,74.5"/><path fill="#4e7ab5" d="M32.357,42.163l3.051,9.154l0.228,0.685l0.722-0.001l28.73-0.038l-0.301,1.196l-5.211,20.843 H36.975l-1.724-3.447l-0.894-1.789l-0.894,1.789l-1.724,3.447H21.079L14.124,53.08l-0.378-1.116l14.608,0.037l0.723,0.002 l0.229-0.686L32.357,42.163 M32.357,39.001l-4,12l-15.98-0.04h-0.02v0.02l0.82,2.42l7.18,21.6h12l2-4l2,4h24l5.4-21.6l0.6-2.38 l-0.02-0.06l-29.98,0.04L32.357,39.001L32.357,39.001z"/></g></svg>