<svg id="Layer_1" data-name="Layer 1" xmlns="http://www.w3.org/2000/svg" viewBox="0 0 512 512"><title>steam-flat</title><path d="M499.65,0H255C114,0,0,111,0,252V496.68C0,502.56,4.47,512,10.35,512H255c141,0,257-119,257-260V7.36C512,1.48,505.53,0,499.65,0Z" fill="#0082c2"/><path id="Steam" d="M386.91,214.07a29.53,29.53,0,1,1-29.53-30A29.76,29.76,0,0,1,386.91,214.07ZM375,264.72l-35.76,31a49.06,49.06,0,0,1,.65,7.58c0,26.43-21.11,47.86-47.15,47.86-22.46,0-41.21-15.95-46-37.28l-88.4-30.44a41,41,0,0,1-25.12,8.62c-23,0-41.61-18.91-41.61-42.24s18.63-42.23,41.61-42.23a41.74,41.74,0,0,1,40.52,32.71l85.39,29.41a46.66,46.66,0,0,1,32.5-14.21l12.79-39.47c0-.78-.11-1.56-.11-2.35,0-29.82,23.82-54,53.21-54s53.22,24.18,53.22,54a53.93,53.93,0,0,1-35.78,51ZM159.44,235.4A29.06,29.06,0,0,0,134,220.17a29.57,29.57,0,0,0,0,59.14,28.66,28.66,0,0,0,8.54-1.3l-13.84-4.77a23.43,23.43,0,0,1-9.38-31.48,22.74,22.74,0,0,1,31-9.51Zm156.64-21.54c0,23.16,18.5,41.94,41.33,41.94s41.34-18.78,41.34-41.94-18.52-42-41.34-42S316.08,190.68,316.08,213.86Zm.82,93.59a31.7,31.7,0,0,0-31.47-31.94,31.21,31.21,0,0,0-7.07.84l17.58,6.05a23.43,23.43,0,0,1,9.37,31.47,22.73,22.73,0,0,1-31,9.52l-18.95-6.53a31.41,31.41,0,0,0,61.54-9.42Z" fill="#fff"/></svg>